<mxfile host="app.diagrams.net" modified="2024-06-27T21:25:05.942Z" agent="Mozilla/5.0 (X11; Linux x86_64) AppleWebKit/537.36 (KHTML, like Gecko) Chrome/122.0.0.0 Safari/537.36" version="24.4.10" etag="3GTNIWYZa_gPq0dlHlg2" type="github">
  <diagram name="Page-1" id="_M8Gl5Nwt_khJ82I5j9u">
    <mxGraphModel>
      <root>
        <mxCell id="0" />
        <mxCell id="1" parent="0" />
      </root>
    </mxGraphModel>
  </diagram>
</mxfile>
